<?xml version="1.0" standalone="no"?>
<!DOCTYPE svg PUBLIC "-//W3C//DTD SVG 20010904//EN"
 "http://www.w3.org/TR/2001/REC-SVG-20010904/DTD/svg10.dtd">
<svg version="1.0" xmlns="http://www.w3.org/2000/svg"
 width="1000.000000pt" height="1000.000000pt" viewBox="0 0 1000.000000 1000.000000"
 preserveAspectRatio="xMidYMid meet">

<g transform="translate(0.000000,1000.000000) scale(0.100000,-0.100000)"
fill="#ffffff" stroke="none">
<path d="M308 9981 c-75 -25 -112 -49 -180 -118 -100 -102 -142 -227 -120
-360 25 -149 -130 14 2226 -2349 l2149 -2156 -2150 -2151 c-2002 -2003 -2153
-2157 -2182 -2217 -86 -178 -57 -368 75 -496 139 -136 331 -167 504 -82 59 29
241 208 2220 2184 l2156 2153 2154 -2155 c2365 -2365 2193 -2201 2343 -2226
206 -34 412 93 471 292 19 64 22 190 6 251 -32 116 39 43 -2213 2296 l-2151
2152 2150 2153 c2130 2133 2151 2155 2190 2233 37 75 39 84 39 174 0 113 -18
174 -74 253 -43 60 -136 132 -208 162 -73 30 -227 29 -308 -3 -58 -22 -141
-104 -2230 -2192 l-2170 -2168 -2150 2145 c-1182 1179 -2168 2157 -2190 2172
-64 45 -123 64 -215 68 -65 3 -99 0 -142 -15z"/>
</g>
</svg>
