<?xml version="1.0" standalone="no"?>
<!DOCTYPE svg PUBLIC "-//W3C//DTD SVG 20010904//EN"
 "http://www.w3.org/TR/2001/REC-SVG-20010904/DTD/svg10.dtd">
<svg version="1.0" xmlns="http://www.w3.org/2000/svg"
 width="1200.000000pt" height="1200.000000pt" viewBox="0 0 1200.000000 1200.000000"
 preserveAspectRatio="xMidYMid meet">

<g transform="translate(0.000000,1200.000000) scale(0.100000,-0.100000)"
fill="#000000" stroke="none">
<path d="M5822 11989 c-105 -14 -247 -52 -352 -94 -70 -28 -4736 -2451 -5030
-2612 -168 -92 -305 -224 -370 -357 -75 -151 -70 54 -70 -2802 0 -1754 3
-2595 11 -2661 12 -111 48 -242 90 -330 67 -140 214 -285 404 -397 50 -29
1222 -638 2605 -1352 1786 -922 2542 -1308 2610 -1331 209 -71 379 -70 580 2
59 22 4817 2473 5120 2638 219 119 369 250 458 398 32 53 71 162 95 264 l21
90 3 2620 c4 2924 9 2708 -67 2862 -49 100 -155 216 -265 293 -82 56 -5014
2628 -5128 2674 -173 69 -309 97 -497 101 -80 2 -178 -1 -218 -6z m424 -447
c65 -22 828 -414 2593 -1333 1376 -716 2500 -1303 2499 -1304 -13 -11 -2350
-1205 -2359 -1205 -15 0 -5371 2741 -5366 2746 13 14 2026 1052 2082 1074 115
47 195 60 335 56 108 -3 137 -7 216 -34z m-435 -2717 c1471 -750 2673 -1368
2672 -1372 0 -4 -558 -294 -1240 -644 l-1238 -637 -100 52 c-55 29 -1255 644
-2668 1366 -1412 722 -2564 1317 -2560 1321 10 9 2446 1279 2454 1279 3 0
1209 -614 2680 -1365z m-2403 -1830 l2352 -1210 0 -2622 c0 -1443 -2 -2623 -4
-2623 -2 0 -1032 526 -2288 1168 -1255 643 -2357 1207 -2448 1253 -358 182
-459 278 -517 490 -16 60 -18 219 -20 2557 l-3 2493 288 -148 c158 -81 1346
-692 2640 -1358z m8109 -1295 c-3 -2399 2 -2223 -60 -2361 -45 -100 -141 -194
-285 -278 -63 -36 -4919 -2521 -4928 -2521 -2 0 -4 1180 -4 2623 l0 2622 2638
1357 2637 1356 3 -306 c1 -169 1 -1290 -1 -2492z"/>
</g>
</svg>
