<?xml version="1.0" standalone="no"?>
<!DOCTYPE svg PUBLIC "-//W3C//DTD SVG 20010904//EN"
 "http://www.w3.org/TR/2001/REC-SVG-20010904/DTD/svg10.dtd">
<svg version="1.0" xmlns="http://www.w3.org/2000/svg"
 width="1000.000000pt" height="1000.000000pt" viewBox="0 0 1000.000000 1000.000000"
 preserveAspectRatio="xMidYMid meet">

<g transform="translate(0.000000,1000.000000) scale(0.100000,-0.100000)"
fill="#000000" stroke="none">
<path d="M1740 9643 c-514 -38 -929 -210 -1225 -508 -128 -128 -211 -242 -288
-393 -103 -202 -166 -410 -203 -667 -18 -124 -19 -234 -19 -2230 0 -1691 3
-2119 13 -2200 121 -906 629 -1435 1517 -1581 70 -11 192 -18 408 -21 l307 -5
0 -642 c1 -696 4 -748 55 -852 73 -149 232 -225 408 -196 91 15 169 54 277
136 47 35 378 322 735 637 358 314 739 650 847 745 l198 174 1738 0 c1862 0
1845 0 2094 50 130 27 317 89 431 143 480 228 795 643 911 1196 53 252 51 164
51 2421 0 1975 -1 2112 -18 2225 -68 455 -225 794 -492 1060 -259 259 -583
414 -1022 487 l-128 22 -3275 1 c-1801 1 -3295 0 -3320 -2z m6495 -573 c362
-33 632 -147 836 -350 195 -195 308 -449 349 -790 6 -55 10 -783 10 -2095 0
-2176 1 -2110 -54 -2324 -127 -488 -452 -780 -986 -888 -78 -15 -246 -17
-1930 -23 -1723 -5 -1849 -7 -1904 -23 -84 -25 -143 -59 -223 -130 -38 -34
-399 -375 -802 -757 -403 -382 -737 -696 -742 -698 -5 -2 -9 289 -9 710 0 460
-4 726 -10 750 -15 51 -56 97 -110 122 -43 20 -67 21 -500 27 -469 6 -520 10
-695 55 -446 115 -754 444 -855 913 -41 188 -41 212 -38 2341 l4 2055 27 122
c33 148 65 241 125 356 188 368 525 576 1012 626 124 12 6358 13 6495 1z"/>
<path d="M3607 7229 c-230 -24 -432 -123 -589 -287 -166 -174 -241 -371 -241
-632 1 -273 82 -487 252 -663 113 -118 223 -182 375 -217 114 -26 227 -33 327
-21 177 23 281 64 367 149 35 33 62 52 74 50 17 -3 14 -12 -26 -91 -150 -293
-446 -537 -793 -653 -153 -52 -192 -85 -208 -180 -16 -97 48 -195 144 -220
144 -37 429 56 676 221 262 175 442 376 584 654 99 195 152 392 173 648 32
409 -67 726 -301 963 -162 163 -349 254 -576 280 -100 11 -126 11 -238 -1z"/>
<path d="M6115 7229 c-402 -42 -731 -332 -809 -711 -18 -89 -21 -291 -5 -388
28 -176 115 -353 236 -481 159 -169 342 -243 598 -242 217 0 364 47 472 149
55 51 83 66 83 44 0 -22 -90 -188 -136 -250 -62 -85 -192 -211 -290 -282 -107
-76 -267 -159 -392 -202 -126 -44 -157 -61 -184 -104 -72 -116 -17 -264 111
-298 129 -33 392 44 624 185 113 69 280 204 372 303 133 143 280 386 348 573
89 249 121 632 72 883 -50 259 -186 481 -388 636 -138 105 -290 165 -472 186
-101 11 -126 11 -240 -1z"/>
</g>
</svg>
