<?xml version="1.0" standalone="no"?>
<!DOCTYPE svg PUBLIC "-//W3C//DTD SVG 20010904//EN"
 "http://www.w3.org/TR/2001/REC-SVG-20010904/DTD/svg10.dtd">
<svg version="1.0" xmlns="http://www.w3.org/2000/svg"
 width="1200.000000pt" height="1200.000000pt" viewBox="0 0 1200.000000 1200.000000"
 preserveAspectRatio="xMidYMid meet">

<g transform="translate(0.000000,1200.000000) scale(0.100000,-0.100000)"
fill="#fd6e70" stroke="none">
<path d="M5710 11994 c-650 -37 -1238 -158 -1845 -379 -1297 -472 -2440 -1460
-3129 -2705 -339 -612 -583 -1362 -680 -2090 -43 -323 -51 -455 -50 -835 1
-557 47 -948 175 -1465 258 -1041 762 -1950 1504 -2709 513 -525 1022 -896
1649 -1201 578 -282 1201 -469 1841 -554 270 -36 395 -46 685 -53 1232 -28
2469 322 3465 982 354 234 592 431 926 764 241 242 406 429 569 646 1068 1423
1442 3354 990 5120 -261 1023 -753 1904 -1485 2664 -1001 1039 -2287 1652
-3765 1796 -157 16 -700 27 -850 19z m895 -783 c759 -93 1470 -334 2086 -706
861 -522 1597 -1323 2025 -2203 319 -656 500 -1381 523 -2092 27 -864 -130
-1651 -484 -2430 -340 -747 -927 -1465 -1632 -1996 -773 -582 -1720 -936
-2713 -1014 -174 -14 -616 -14 -790 0 -1020 81 -1962 430 -2745 1018 -702 527
-1270 1220 -1627 1987 -763 1641 -622 3595 367 5090 410 620 972 1171 1603
1573 672 428 1521 714 2322 782 69 5 141 12 160 14 19 2 193 3 385 1 277 -3
386 -8 520 -24z"/>
<path d="M4264 8041 c-154 -39 -288 -190 -301 -338 -6 -71 15 -165 53 -225 14
-24 346 -364 737 -755 l712 -713 -726 -727 c-825 -828 -774 -765 -774 -933 0
-82 4 -103 27 -153 54 -115 196 -219 318 -233 70 -8 167 16 230 56 25 16 364
349 755 740 l710 710 720 -719 c772 -771 760 -760 881 -780 120 -19 223 17
315 109 95 94 134 202 118 328 -16 122 -4 109 -778 885 l-716 717 721 723
c792 793 768 765 781 900 14 153 -85 315 -235 385 -49 23 -70 27 -152 27 -168
-1 -106 51 -930 -771 l-725 -723 -730 722 c-810 802 -769 767 -910 773 -38 2
-84 0 -101 -5z"/>
</g>
</svg>
