<?xml version="1.0" standalone="no"?>
<!DOCTYPE svg PUBLIC "-//W3C//DTD SVG 20010904//EN"
 "http://www.w3.org/TR/2001/REC-SVG-20010904/DTD/svg10.dtd">
<svg version="1.0" xmlns="http://www.w3.org/2000/svg"
 width="1000.000000pt" height="1000.000000pt" viewBox="0 0 1000.000000 1000.000000"
 preserveAspectRatio="xMidYMid meet">

<g transform="translate(0.000000,1000.000000) scale(0.100000,-0.100000)"
fill="#000000" stroke="none">
<path d="M4655 9989 c-1055 -73 -2023 -467 -2855 -1160 -159 -131 -486 -458
-616 -614 -639 -768 -1027 -1642 -1143 -2575 -173 -1385 211 -2716 1096 -3795
678 -828 1630 -1438 2638 -1693 429 -108 748 -147 1225 -147 320 0 457 9 715
46 1395 197 2675 1022 3467 2234 568 868 841 1816 815 2835 -13 516 -89 957
-247 1430 -356 1070 -1093 2021 -2045 2642 -642 419 -1368 685 -2105 772 -287
34 -670 45 -945 25z m585 -639 c797 -45 1495 -274 2154 -707 687 -451 1242
-1103 1584 -1863 330 -733 447 -1537 342 -2352 -84 -659 -307 -1259 -677
-1822 -504 -768 -1266 -1373 -2138 -1698 -799 -298 -1732 -346 -2586 -133
-460 115 -911 318 -1334 600 -1013 676 -1699 1743 -1884 2930 -38 248 -46 363
-46 695 0 342 8 451 51 719 190 1186 896 2270 1910 2934 780 511 1681 750
2624 697z"/>
<path d="M4770 7439 c-385 -43 -676 -176 -921 -419 -213 -211 -301 -406 -303
-670 -1 -127 12 -167 71 -221 56 -53 111 -73 198 -73 93 -1 154 23 214 83 44
44 108 151 148 248 58 136 180 287 306 377 69 49 181 102 272 128 72 21 100
23 275 22 168 0 206 -4 275 -22 264 -73 450 -235 521 -456 23 -69 27 -99 27
-201 1 -139 -16 -213 -71 -320 -51 -100 -221 -267 -427 -420 -295 -219 -340
-253 -416 -323 -79 -73 -184 -201 -227 -274 -77 -134 -112 -297 -112 -522 0
-189 12 -247 66 -305 104 -115 347 -117 460 -4 66 66 77 101 85 278 5 126 11
174 29 225 59 174 182 305 495 525 208 146 316 235 450 370 234 233 316 415
331 730 13 259 -42 473 -171 670 -53 81 -224 251 -310 307 -214 141 -452 227
-728 263 -127 16 -408 18 -537 4z"/>
<path d="M4773 3445 c-84 -23 -154 -64 -214 -125 -131 -134 -164 -332 -83
-499 36 -74 142 -180 215 -214 229 -108 508 -10 620 218 29 59 34 81 37 160 3
67 0 108 -13 151 -65 229 -327 372 -562 309z"/>
</g>
</svg>
