<?xml version="1.0" standalone="no"?>
<!DOCTYPE svg PUBLIC "-//W3C//DTD SVG 20010904//EN"
 "http://www.w3.org/TR/2001/REC-SVG-20010904/DTD/svg10.dtd">
<svg version="1.0" xmlns="http://www.w3.org/2000/svg"
 width="1000.000000pt" height="1000.000000pt" viewBox="0 0 1000.000000 1000.000000"
 preserveAspectRatio="xMidYMid meet">

<g transform="translate(0.000000,1000.000000) scale(0.100000,-0.100000)"
fill="#000000" stroke="none">
<path d="M3969 8870 c-212 -24 -357 -86 -522 -226 -32 -27 -150 -152 -261
-279 -304 -343 -373 -405 -505 -445 -103 -32 -292 -40 -981 -40 -677 0 -753
-4 -918 -46 -187 -47 -323 -119 -450 -239 -167 -157 -259 -342 -310 -625 -16
-88 -17 -271 -17 -2460 0 -1927 2 -2381 13 -2450 57 -356 198 -597 445 -758
127 -83 320 -148 512 -171 64 -8 1227 -11 4022 -11 4286 0 4046 -3 4248 55
421 122 653 397 733 870 16 92 17 286 17 2455 0 2242 -1 2360 -18 2465 -45
269 -143 473 -298 621 -142 135 -296 212 -533 266 -87 20 -131 21 -931 28
-910 8 -916 9 -1030 65 -85 41 -177 129 -394 374 -115 130 -242 267 -281 305
-131 124 -254 190 -425 229 -87 20 -119 21 -1065 23 -536 1 -1009 -2 -1051 -6z
m1946 -523 c171 -41 255 -109 568 -454 320 -354 388 -413 535 -462 140 -47
208 -51 987 -51 402 0 782 -5 846 -10 336 -28 547 -195 616 -487 17 -74 18
-186 18 -2383 0 -2197 -1 -2309 -18 -2383 -55 -234 -206 -390 -442 -459 l-80
-23 -3945 0 c-3730 0 -3949 1 -4010 18 -241 65 -388 213 -453 457 l-22 85 0
2300 c0 2194 1 2304 18 2380 23 99 83 225 137 287 45 52 149 124 225 155 131
55 137 55 1030 63 551 5 846 11 878 19 148 34 249 82 344 165 34 29 169 172
301 317 131 145 260 283 285 307 110 100 222 152 372 171 39 5 446 8 905 7
743 -2 843 -4 905 -19z"/>
<path d="M4730 6839 c-333 -38 -685 -166 -975 -357 -141 -92 -218 -154 -339
-271 -378 -367 -619 -858 -676 -1376 -13 -119 -13 -401 1 -523 71 -659 442
-1269 994 -1636 390 -259 791 -379 1265 -379 374 0 679 70 1001 229 250 124
432 258 635 465 357 367 575 838 625 1354 16 163 6 465 -20 620 -100 588 -417
1102 -901 1457 -314 231 -687 375 -1082 417 -112 13 -418 12 -528 0z m625
-508 c661 -137 1210 -659 1374 -1306 68 -271 69 -630 1 -894 -79 -310 -241
-594 -469 -822 -256 -254 -565 -420 -916 -492 -95 -19 -141 -22 -345 -22 -206
0 -249 3 -349 23 -652 132 -1185 621 -1366 1252 -103 361 -86 816 45 1144 138
349 373 642 679 847 227 153 448 240 716 284 135 22 497 14 630 -14z"/>
<path d="M7881 6579 c-143 -28 -287 -143 -357 -285 l-39 -78 0 -131 0 -131 38
-76 c88 -178 256 -281 457 -281 148 1 256 49 364 163 190 199 173 507 -37 696
-124 111 -271 154 -426 123z"/>
</g>
</svg>
