<?xml version="1.0" standalone="no"?>
<!DOCTYPE svg PUBLIC "-//W3C//DTD SVG 20010904//EN"
 "http://www.w3.org/TR/2001/REC-SVG-20010904/DTD/svg10.dtd">
<svg version="1.0" xmlns="http://www.w3.org/2000/svg"
 width="1600.000000pt" height="1200.000000pt" viewBox="0 0 1600.000000 1200.000000"
 preserveAspectRatio="xMidYMid meet">

<g transform="translate(0.000000,1200.000000) scale(0.100000,-0.100000)"
fill="#00a000" stroke="none">
<path d="M7478 11993 l-4208 -3 0 -375 0 -375 4308 -3 c4730 -4 4370 1 4568
-61 79 -25 182 -83 216 -122 21 -23 74 -118 128 -229 59 -120 75 -189 75 -335
-1 -192 -32 -307 -188 -676 -47 -111 -99 -254 -117 -320 -17 -65 -89 -265
-160 -444 -165 -419 -262 -680 -595 -1600 -334 -923 -413 -1135 -615 -1645
-87 -220 -212 -557 -278 -750 -66 -192 -138 -399 -161 -460 -57 -149 -160
-382 -176 -395 -7 -5 -112 -44 -233 -85 -256 -86 -339 -122 -446 -194 -186
-126 -441 -376 -608 -596 -118 -156 -170 -267 -261 -562 -31 -100 -68 -206
-81 -236 l-23 -54 -69 -11 c-38 -6 -105 -14 -149 -17 -137 -10 -3056 -13
-3120 -3 -112 17 -138 43 -160 163 -18 93 -177 497 -232 590 -150 251 -424
538 -674 705 -315 213 -564 285 -1059 310 -108 5 -857 10 -1677 10 l-1483 0 0
-355 0 -355 603 -3 c674 -3 671 -3 753 -74 l44 -38 -6 -65 c-8 -100 -18 -131
-119 -340 -139 -288 -173 -442 -182 -831 -10 -424 27 -622 175 -929 193 -401
465 -703 829 -920 198 -118 478 -229 678 -269 237 -47 547 -52 745 -12 165 34
476 150 613 230 231 136 550 437 704 666 93 138 214 411 237 535 25 129 33
147 82 180 42 30 50 31 211 42 252 18 3079 17 3150 -1 73 -18 138 -63 174
-118 16 -27 53 -120 81 -208 73 -229 149 -369 308 -570 262 -330 469 -483 889
-654 239 -98 367 -123 631 -124 184 0 289 11 430 44 47 11 143 31 214 44 115
21 144 31 260 88 364 180 676 461 911 820 72 112 110 194 195 428 39 105 73
197 78 205 4 8 25 23 47 34 38 19 59 20 772 20 l732 0 16 23 c9 12 32 74 52
137 20 63 74 198 121 300 162 356 181 400 191 457 6 31 76 212 155 402 79 190
259 627 399 971 140 344 299 731 352 860 54 129 156 379 227 555 71 176 143
345 160 375 119 211 119 204 -5 515 -31 77 -90 250 -132 385 -42 135 -125 391
-185 570 -60 179 -163 512 -229 740 -66 228 -147 496 -181 595 -79 232 -124
365 -200 600 -35 105 -84 244 -110 310 -26 66 -53 144 -59 173 -19 90 16 85
-463 72 -583 -17 -884 2 -1036 63 l-56 22 -18 85 -18 85 39 140 c83 294 86
374 21 625 -108 423 -233 653 -457 840 -43 36 -107 95 -143 132 -79 81 -202
145 -409 212 -162 53 -258 67 -446 64 -77 -2 -2033 -4 -4347 -5z m6727 -3020
c82 -43 107 -85 149 -249 14 -55 37 -130 51 -168 14 -37 79 -242 145 -454 65
-213 142 -450 170 -527 27 -77 104 -313 169 -525 66 -212 149 -464 186 -560
181 -475 179 -460 82 -653 -39 -78 -77 -171 -93 -227 -16 -59 -63 -172 -124
-300 -105 -218 -158 -345 -466 -1104 -419 -1031 -557 -1368 -631 -1546 l-78
-185 -70 -14 c-54 -11 -168 -15 -500 -15 -393 -1 -433 1 -462 17 -46 24 -72
83 -94 206 -10 58 -27 131 -36 161 -28 89 -155 335 -245 471 -75 115 -103 146
-293 330 -279 270 -342 316 -560 409 -221 94 -333 151 -339 174 -10 38 -6 140
9 203 8 35 44 131 79 215 35 84 109 279 164 433 55 154 118 326 140 382 23 55
71 197 107 315 37 117 107 317 157 443 50 127 176 460 280 740 104 281 238
634 298 785 60 151 148 385 195 520 48 135 101 279 117 320 16 41 43 124 58
183 37 141 56 175 114 209 l47 28 517 3 c708 5 709 5 757 -20z m-10920 -5519
c119 -5 153 -11 225 -36 201 -70 453 -222 585 -353 146 -144 257 -381 316
-672 26 -131 36 -379 19 -509 -43 -343 -249 -679 -531 -867 -216 -143 -584
-277 -765 -277 -137 0 -279 38 -515 137 -194 81 -380 201 -475 306 -129 144
-262 451 -310 717 -22 122 -29 321 -15 421 24 167 116 394 229 564 178 269
386 428 695 530 130 43 203 55 317 49 47 -2 148 -6 225 -10z m7535 0 c125 -5
156 -10 230 -36 165 -58 383 -183 525 -300 338 -280 505 -1006 338 -1471 -164
-459 -513 -743 -1088 -887 -168 -42 -324 -20 -591 85 -301 118 -510 261 -619
426 -96 144 -181 351 -231 564 -32 137 -44 391 -24 512 37 234 200 547 385
741 145 152 291 243 519 321 137 47 217 61 331 55 44 -2 145 -6 225 -10z"/>
<path d="M0 9375 l0 -365 2545 0 2545 0 0 365 0 365 -2545 0 -2545 0 0 -365z"/>
<path d="M1090 7100 l0 -370 910 0 910 0 0 370 0 370 -910 0 -910 0 0 -370z"/>
</g>
</svg>
