<?xml version="1.0" standalone="no"?>
<!DOCTYPE svg PUBLIC "-//W3C//DTD SVG 20010904//EN"
 "http://www.w3.org/TR/2001/REC-SVG-20010904/DTD/svg10.dtd">
<svg version="1.0" xmlns="http://www.w3.org/2000/svg"
 width="500.000000pt" height="1000.000000pt" viewBox="0 0 500.000000 1000.000000"
 preserveAspectRatio="xMidYMid meet">

<g transform="translate(0.000000,1000.000000) scale(0.100000,-0.100000)"
fill="#999999" stroke="none">
<path d="M150 9987 c-83 -27 -150 -135 -150 -241 1 -117 -147 43 2250 -2448
1213 -1261 2205 -2295 2205 -2298 0 -3 -992 -1037 -2205 -2298 -1213 -1261
-2213 -2310 -2224 -2330 -10 -20 -21 -65 -24 -99 -14 -182 156 -324 304 -253
31 15 635 638 2343 2417 1324 1378 2312 2414 2324 2437 31 59 31 193 0 252
-12 23 -998 1059 -2313 2430 -1805 1882 -2302 2395 -2342 2417 -54 29 -106 34
-168 14z"/>
</g>
</svg>
