<?xml version="1.0" standalone="no"?>
<!DOCTYPE svg PUBLIC "-//W3C//DTD SVG 20010904//EN"
 "http://www.w3.org/TR/2001/REC-SVG-20010904/DTD/svg10.dtd">
<svg version="1.0" xmlns="http://www.w3.org/2000/svg"
 width="1000.000000pt" height="1000.000000pt" viewBox="0 0 1000.000000 1000.000000"
 preserveAspectRatio="xMidYMid meet">

<g transform="translate(0.000000,1000.000000) scale(0.100000,-0.100000)"
fill="#000000" stroke="none">
<path d="M3775 9993 c-837 -53 -1619 -357 -2285 -889 -174 -139 -477 -442
-614 -614 -416 -523 -697 -1128 -810 -1750 -49 -267 -60 -404 -60 -725 0 -313
11 -465 55 -708 148 -834 594 -1635 1234 -2220 789 -720 1788 -1095 2835
-1063 239 7 348 17 560 52 576 95 1177 343 1644 677 l110 78 140 -139 c78 -76
690 -685 1361 -1352 784 -780 1241 -1227 1279 -1251 81 -53 158 -80 246 -86
249 -17 453 130 515 372 27 108 13 250 -36 348 -14 29 -450 471 -1401 1423
l-1381 1382 55 68 c420 531 705 1207 799 1897 26 196 37 631 20 841 -55 681
-277 1312 -665 1886 -399 591 -934 1053 -1591 1375 -476 233 -932 355 -1470
395 -128 9 -419 11 -540 3z m645 -679 c531 -60 1012 -237 1465 -539 582 -387
1025 -940 1280 -1594 292 -752 285 -1643 -21 -2395 -425 -1043 -1364 -1820
-2459 -2035 -231 -45 -349 -55 -650 -55 -318 -1 -448 11 -703 64 -780 160
-1508 623 -1995 1268 -233 308 -423 687 -532 1056 -152 517 -170 1123 -50
1661 61 271 139 485 277 757 274 541 698 1003 1219 1328 137 86 456 244 594
296 502 185 1038 249 1575 188z"/>
</g>
</svg>
