<?xml version="1.0" standalone="no"?>
<!DOCTYPE svg PUBLIC "-//W3C//DTD SVG 20010904//EN"
 "http://www.w3.org/TR/2001/REC-SVG-20010904/DTD/svg10.dtd">
<svg version="1.0" xmlns="http://www.w3.org/2000/svg"
 width="1200.000000pt" height="1200.000000pt" viewBox="0 0 1200.000000 1200.000000"
 preserveAspectRatio="xMidYMid meet">

<g transform="translate(0.000000,1200.000000) scale(0.100000,-0.100000)"
fill="#000000" stroke="none">
<path d="M5830 11980 c-104 -27 -278 -116 -385 -196 -59 -44 -287 -263 -660
-635 -390 -388 -584 -574 -614 -589 -115 -58 -54 -54 -986 -61 -818 -6 -865
-7 -955 -26 -431 -94 -630 -302 -712 -743 -21 -110 -22 -152 -27 -956 l-6
-840 -38 -76 c-35 -72 -68 -107 -585 -631 -602 -608 -673 -690 -767 -882 -73
-149 -89 -213 -89 -355 1 -102 5 -126 32 -210 37 -112 99 -224 190 -346 41
-54 280 -306 616 -646 301 -306 560 -574 574 -594 14 -21 35 -61 46 -89 21
-49 21 -69 27 -885 6 -877 7 -909 54 -1084 96 -363 323 -551 750 -622 85 -15
224 -18 935 -23 l835 -6 65 -29 c59 -27 101 -65 470 -431 809 -801 848 -836
1055 -936 141 -69 205 -84 350 -83 108 1 129 4 217 34 54 18 132 52 173 75
193 110 237 150 1015 920 359 356 401 394 460 421 l65 29 830 6 c690 5 847 9
930 22 428 69 648 243 750 593 57 195 58 210 64 1114 6 816 6 836 27 885 11
28 32 68 46 89 15 21 273 289 575 595 655 665 717 741 802 984 32 94 35 111
35 217 0 142 -16 207 -89 355 -94 192 -166 275 -767 882 -518 524 -549 558
-585 630 l-38 77 -6 840 c-5 800 -6 847 -27 956 -74 402 -255 615 -606 715
-181 51 -253 55 -1079 55 -430 0 -787 4 -820 10 -31 5 -85 21 -120 36 -57 26
-107 73 -602 564 -297 295 -572 563 -611 596 -150 128 -293 214 -429 259 -112
37 -277 44 -385 15z m282 -470 c116 -43 179 -100 828 -745 526 -521 645 -636
696 -662 122 -65 93 -63 1011 -63 504 0 872 -4 931 -10 97 -11 213 -39 264
-66 82 -43 133 -117 171 -252 21 -75 21 -96 27 -1007 5 -721 9 -939 19 -970
40 -124 47 -132 701 -790 655 -659 700 -709 750 -842 44 -118 14 -234 -101
-389 -29 -38 -330 -348 -669 -689 -671 -674 -654 -654 -685 -800 -12 -59 -15
-209 -15 -922 0 -873 -3 -945 -40 -1067 -39 -126 -100 -191 -217 -231 -137
-48 -149 -48 -1113 -54 -1006 -7 -936 -3 -1050 -68 -27 -15 -300 -279 -670
-648 -608 -605 -688 -678 -810 -741 -48 -25 -66 -29 -140 -29 -77 0 -91 3
-150 34 -36 19 -92 54 -125 79 -33 25 -339 323 -680 662 -461 459 -634 625
-676 648 -112 63 -91 62 -994 62 -852 0 -981 5 -1118 42 -176 47 -254 152
-286 383 -7 49 -11 379 -11 928 0 713 -3 863 -15 922 -31 146 -13 125 -695
810 -344 347 -648 659 -675 695 -78 106 -110 182 -110 265 0 82 26 146 102
254 27 39 304 325 668 691 385 387 633 643 649 672 15 25 37 73 49 105 22 58
22 60 27 993 6 923 6 936 28 1013 52 186 121 248 327 295 60 13 208 16 995 21
1004 7 935 3 1051 61 30 15 237 214 659 635 614 611 721 708 837 762 95 44
163 47 255 13z"/>
<path d="M8238 8300 c-43 -13 -95 -48 -125 -85 -16 -18 -629 -974 -1363 -2124
-734 -1149 -1338 -2089 -1341 -2088 -4 1 -345 401 -759 890 -592 699 -760 892
-793 909 -57 29 -156 30 -212 1 -120 -63 -162 -199 -101 -324 34 -68 1655
-1973 1718 -2019 73 -53 196 -62 278 -20 19 10 52 33 72 52 37 32 2804 4332
2875 4466 76 145 19 293 -131 337 -55 16 -77 17 -118 5z"/>
</g>
</svg>
