<?xml version="1.0" standalone="no"?>
<!DOCTYPE svg PUBLIC "-//W3C//DTD SVG 20010904//EN"
 "http://www.w3.org/TR/2001/REC-SVG-20010904/DTD/svg10.dtd">
<svg version="1.0" xmlns="http://www.w3.org/2000/svg"
 width="1200.000000pt" height="1200.000000pt" viewBox="0 0 1200.000000 1200.000000"
 preserveAspectRatio="xMidYMid meet">

<g transform="translate(0.000000,1200.000000) scale(0.100000,-0.100000)"
fill="#000000" stroke="none">
<path d="M5597 11989 c-1137 -62 -2227 -419 -3157 -1034 -1149 -759 -1973
-1883 -2288 -3120 -231 -905 -195 -1917 98 -2795 144 -431 373 -893 628 -1265
483 -707 1119 -1290 1885 -1726 l117 -67 -46 -88 c-153 -293 -361 -614 -673
-1039 -199 -271 -248 -350 -276 -449 -22 -75 -16 -175 13 -231 29 -58 99 -119
168 -146 52 -20 76 -23 199 -23 154 0 224 9 425 59 587 146 1507 588 2273
1091 l157 104 138 -15 c453 -48 981 -48 1427 1 1658 180 3157 951 4144 2129
519 620 894 1376 1056 2128 141 653 151 1391 29 2037 -216 1145 -865 2219
-1826 3023 -369 308 -749 554 -1213 782 -701 346 -1384 540 -2170 620 -332 33
-762 43 -1108 24z m888 -469 c321 -25 604 -66 880 -126 1684 -371 3071 -1417
3765 -2839 217 -444 348 -880 410 -1366 96 -755 3 -1525 -267 -2209 -488
-1236 -1514 -2255 -2844 -2825 -583 -251 -1150 -394 -1829 -462 -274 -27 -884
-25 -1219 5 -360 32 -360 32 -677 -165 -676 -420 -1352 -774 -1799 -941 -219
-81 -469 -144 -510 -128 -34 13 -52 -16 320 491 297 404 429 611 552 865 73
151 93 211 93 283 0 71 -26 133 -71 171 -16 14 -82 53 -146 87 -770 409 -1390
942 -1866 1604 -261 364 -508 851 -641 1262 -261 812 -282 1743 -56 2565 123
448 332 903 605 1313 894 1344 2428 2230 4162 2400 347 35 811 41 1138 15z"/>
</g>
</svg>
