<?xml version="1.0" standalone="no"?>
<!DOCTYPE svg PUBLIC "-//W3C//DTD SVG 20010904//EN"
 "http://www.w3.org/TR/2001/REC-SVG-20010904/DTD/svg10.dtd">
<svg version="1.0" xmlns="http://www.w3.org/2000/svg"
 width="1200.000000pt" height="1200.000000pt" viewBox="0 0 1200.000000 1200.000000"
 preserveAspectRatio="xMidYMid meet">

<g transform="translate(0.000000,1200.000000) scale(0.100000,-0.100000)"
fill="#007aff" stroke="none">
<path d="M5620 11990 c-1070 -70 -2039 -401 -2937 -1002 -351 -234 -656 -490
-972 -814 -557 -571 -992 -1239 -1296 -1989 -547 -1352 -554 -2965 -18 -4325
466 -1182 1286 -2189 2348 -2886 302 -198 687 -401 1020 -539 1398 -579 3070
-579 4470 0 202 83 557 259 740 366 897 524 1641 1260 2176 2150 362 604 622
1275 743 1919 221 1174 94 2380 -361 3435 -587 1358 -1629 2456 -2938 3095
-671 327 -1288 501 -2045 575 -185 19 -739 27 -930 15z m670 -770 c735 -41
1373 -206 2009 -520 395 -195 722 -408 1062 -691 160 -134 485 -458 625 -624
551 -656 938 -1429 1119 -2234 136 -611 159 -1303 65 -1953 -74 -502 -226
-993 -454 -1464 -271 -557 -574 -983 -1011 -1419 -439 -440 -849 -734 -1410
-1010 -276 -136 -444 -205 -700 -288 -776 -251 -1648 -311 -2489 -172 -1200
199 -2332 857 -3131 1820 -559 673 -947 1494 -1105 2340 -101 535 -118 1110
-50 1670 118 974 529 1911 1180 2695 203 245 546 575 805 777 393 305 850 561
1333 747 662 254 1408 367 2152 326z"/>
<path d="M5894 8717 c-110 -29 -213 -119 -256 -225 l-23 -57 -3 -1022 -3
-1023 -988 0 c-627 0 -1008 -4 -1042 -10 -117 -22 -209 -92 -261 -198 -31 -63
-33 -72 -33 -177 0 -100 2 -115 28 -167 35 -72 119 -149 195 -180 l57 -23
1022 -3 1023 -2 2 -1023 3 -1022 26 -62 c29 -69 64 -114 125 -161 65 -51 116
-65 229 -66 92 -1 105 1 167 31 114 54 184 145 208 273 6 33 10 419 10 1041
l0 989 1028 2 1027 3 57 27 c32 15 79 47 106 72 167 156 142 459 -48 588 -103
70 -61 68 -1172 68 l-998 0 0 988 c0 1069 -1 1075 -54 1167 -36 61 -118 131
-182 155 -71 26 -183 34 -250 17z"/>
</g>
</svg>
